<?xml version="1.0" encoding="utf-8"?>
<!-- Generator: Adobe Illustrator 23.0.1, SVG Export Plug-In . SVG Version: 6.00 Build 0)  -->
<svg version="1.1" id="Layer_1" xmlns="http://www.w3.org/2000/svg" xmlns:xlink="http://www.w3.org/1999/xlink" x="0px" y="0px"
	 viewBox="0 0 560 220" style="enable-background:new 0 0 560 220;" xml:space="preserve">
<style type="text/css">
	.st0{fill:#F8F7F4;}
	.st1{fill:#92CDFF;}
	.st2{fill:#FE9E90;}
</style>
<g>
	<path class="st0" d="M10.3,0.8L11.1,0H0v11l0.8-0.8C2.3,5.8,5.8,2.3,10.3,0.8z"/>
	<path class="st0" d="M14,220h1C14.7,220,14.4,220,14,220L14,220z"/>
	<path class="st0" d="M2.1,212.5L0,214.6v5.4h4.3l2.5-2.5C4.8,216.2,3.2,214.5,2.1,212.5z"/>
	<polygon class="st0" points="40.1,0 0,40.1 0,49.8 49.8,0 	"/>
	<polygon class="st0" points="392,220 560,52 560,42.3 382.3,220 	"/>
	<polygon class="st0" points="372.6,220 560,32.6 560,23 363,220 	"/>
	<polygon class="st0" points="20.7,0 0,20.7 0,30.4 30.4,0 	"/>
	<path class="st0" d="M353.3,220L559.9,13.4c0.1,0.5,0.1,1.1,0.1,1.6V3.6L343.6,220H353.3z"/>
	<polygon class="st0" points="295.1,220 515.1,0 505.4,0 285.4,220 	"/>
	<polygon class="st0" points="236.9,220 456.9,0 447.2,0 227.2,220 	"/>
	<polygon class="st0" points="217.6,220 437.6,0 427.9,0 207.9,220 	"/>
	<polygon class="st0" points="198.2,220 418.2,0 408.5,0 188.5,220 	"/>
	<polygon class="st0" points="256.3,220 476.3,0 466.6,0 246.6,220 	"/>
	<polygon class="st0" points="333.9,220 553.9,0 544.2,0 324.2,220 	"/>
	<path class="st0" d="M0.8,10.3l9.5-9.5C5.8,2.3,2.3,5.8,0.8,10.3z"/>
	<polygon class="st0" points="275.7,220 495.7,0 486,0 266,220 	"/>
	<polygon class="st0" points="314.5,220 534.5,0 524.8,0 304.8,220 	"/>
	<polygon class="st0" points="411.4,220 560,71.4 560,61.7 401.7,220 	"/>
	<polygon class="st0" points="489,220 560,149 560,139.3 479.3,220 	"/>
	<polygon class="st0" points="560,220 560,216.8 556.8,220 	"/>
	<polygon class="st0" points="178.8,220 398.8,0 389.1,0 169.1,220 	"/>
	<polygon class="st0" points="117.7,0 0,117.7 0,127.4 127.4,0 	"/>
	<polygon class="st0" points="175.8,0 0,175.8 0,185.5 185.5,0 	"/>
	<polygon class="st0" points="195.2,0 0,195.2 0,204.9 204.9,0 	"/>
	<polygon class="st0" points="156.4,0 0,156.4 0,166.1 166.1,0 	"/>
	<polygon class="st0" points="547.1,220 560,207.1 560,205 560,197.4 537.4,220 	"/>
	<polygon class="st0" points="527.7,220 560,187.7 560,178.1 518.1,220 	"/>
	<polygon class="st0" points="469.6,220 560,129.6 560,119.9 459.9,220 	"/>
	<polygon class="st0" points="450.2,220 560,110.2 560,100.5 440.5,220 	"/>
	<polygon class="st0" points="59.5,0 0,59.5 0,69.2 69.2,0 	"/>
	<polygon class="st0" points="78.9,0 0,78.9 0,88.6 88.6,0 	"/>
	<polygon class="st0" points="430.8,220 560,90.8 560,81.1 421.1,220 	"/>
	<polygon class="st0" points="98.3,0 0,98.3 0,108 108,0 	"/>
	<polygon class="st0" points="508.4,220 560,168.4 560,158.7 498.7,220 	"/>
	<polygon class="st0" points="43.1,220 263.1,0 253.4,0 33.4,220 	"/>
	<polygon class="st0" points="101.2,220 321.2,0 311.5,0 91.5,220 	"/>
	<path class="st0" d="M243.7,0H234L14,220c0.3,0,0.6,0,1,0h8.7L243.7,0z"/>
	<polyline class="st0" points="547.1,220 537.4,220 527.7,220 518.1,220 508.4,220 498.7,220 489,220 479.3,220 469.6,220 
		459.9,220 450.2,220 440.5,220 430.8,220 421.1,220 411.4,220 401.7,220 392,220 382.3,220 372.6,220 363,220 353.3,220 343.6,220 
		333.9,220 324.2,220 314.5,220 304.8,220 295.1,220 285.4,220 275.7,220 266,220 256.3,220 246.6,220 236.9,220 227.2,220 
		217.6,220 207.9,220 198.2,220 188.5,220 178.8,220 169.1,220 159.4,220 149.7,220 140,220 130.3,220 120.6,220 110.9,220 
		101.2,220 91.5,220 81.8,220 72.1,220 62.5,220 52.8,220 43.1,220 33.4,220 23.7,220 15,220 	"/>
	<polygon class="st0" points="81.8,220 301.8,0 292.1,0 72.1,220 	"/>
	<path class="st0" d="M6.8,217.5L224.3,0h-9.7L2.1,212.5C3.2,214.5,4.8,216.2,6.8,217.5z"/>
	<polygon class="st0" points="120.6,220 340.6,0 330.9,0 110.9,220 	"/>
	<polygon class="st0" points="137.1,0 0,137.1 0,146.7 146.7,0 	"/>
	<polygon class="st0" points="159.4,220 379.4,0 369.7,0 149.7,220 	"/>
	<polygon class="st0" points="140,220 360,0 350.3,0 130.3,220 	"/>
	<polygon class="st0" points="62.5,220 282.5,0 272.8,0 52.8,220 	"/>
	<path class="st1" d="M0,11v4c0-1.7,0.3-3.2,0.8-4.7L0,11z"/>
	<path class="st1" d="M15,0h-3.9l-0.8,0.8C11.8,0.3,13.3,0,15,0z"/>
	<path class="st1" d="M15,0c-1.7,0-3.2,0.3-4.7,0.8l-9.5,9.5C0.3,11.8,0,13.3,0,15v5.7L20.7,0H15z"/>
	<polygon class="st2" points="30.4,0 0,30.4 0,40.1 40.1,0 	"/>
	<polygon class="st1" points="49.8,0 0,49.8 0,59.5 59.5,0 	"/>
	<polygon class="st2" points="69.2,0 0,69.2 0,78.9 78.9,0 	"/>
	<polygon class="st1" points="88.6,0 0,88.6 0,98.3 98.3,0 	"/>
	<polygon class="st2" points="108,0 0,108 0,117.7 117.7,0 	"/>
	<polygon class="st1" points="127.4,0 0,127.4 0,137.1 137.1,0 	"/>
	<polygon class="st2" points="146.7,0 0,146.7 0,156.4 156.4,0 	"/>
	<polygon class="st1" points="166.1,0 0,166.1 0,175.8 175.8,0 	"/>
	<polygon class="st2" points="185.5,0 0,185.5 0,195.2 195.2,0 	"/>
	<path class="st1" d="M0,205v9.6l2.1-2.1C0.8,210.3,0,207.7,0,205z"/>
	<path class="st1" d="M2.1,212.5L214.6,0h-9.7L0,204.9v0.1C0,207.7,0.8,210.3,2.1,212.5z"/>
	<path class="st2" d="M6.8,217.5L4.3,220H14l0,0C11.4,219.8,8.9,218.9,6.8,217.5z"/>
	<path class="st2" d="M14,220L234,0h-9.7L6.8,217.5C8.9,218.9,11.4,219.8,14,220z"/>
	<polygon class="st1" points="33.4,220 253.4,0 243.7,0 23.7,220 	"/>
	<polygon class="st2" points="52.8,220 272.8,0 263.1,0 43.1,220 	"/>
	<polygon class="st1" points="72.1,220 292.1,0 282.5,0 62.5,220 	"/>
	<polygon class="st2" points="91.5,220 311.5,0 301.8,0 81.8,220 	"/>
	<polygon class="st1" points="110.9,220 330.9,0 321.2,0 101.2,220 	"/>
	<polygon class="st2" points="130.3,220 350.3,0 340.6,0 120.6,220 	"/>
	<polygon class="st1" points="149.7,220 369.7,0 360,0 140,220 	"/>
	<polygon class="st2" points="169.1,220 389.1,0 379.4,0 159.4,220 	"/>
	<polygon class="st1" points="188.5,220 408.5,0 398.8,0 178.8,220 	"/>
	<polygon class="st2" points="207.9,220 427.9,0 418.2,0 198.2,220 	"/>
	<polygon class="st1" points="227.2,220 447.2,0 437.6,0 217.6,220 	"/>
	<polygon class="st2" points="246.6,220 466.6,0 456.9,0 236.9,220 	"/>
	<polygon class="st1" points="266,220 486,0 476.3,0 256.3,220 	"/>
	<polygon class="st2" points="285.4,220 505.4,0 495.7,0 275.7,220 	"/>
	<polygon class="st1" points="304.8,220 524.8,0 515.1,0 295.1,220 	"/>
	<polygon class="st2" points="324.2,220 544.2,0 534.5,0 314.5,220 	"/>
	<polygon class="st1" points="343.6,220 560,3.6 560,0 553.9,0 333.9,220 	"/>
	<path class="st2" d="M353.3,220h9.7L560,23v-8c0-0.6,0-1.1-0.1-1.6L353.3,220z"/>
	<polygon class="st1" points="382.3,220 560,42.3 560,32.6 372.6,220 	"/>
	<polygon class="st2" points="401.7,220 560,61.7 560,52 392,220 	"/>
	<polygon class="st1" points="421.1,220 560,81.1 560,71.4 411.4,220 	"/>
	<polygon class="st2" points="440.5,220 560,100.5 560,90.8 430.8,220 	"/>
	<polygon class="st1" points="459.9,220 560,119.9 560,110.2 450.2,220 	"/>
	<polygon class="st2" points="479.3,220 560,139.3 560,129.6 469.6,220 	"/>
	<polygon class="st1" points="498.7,220 560,158.7 560,149 489,220 	"/>
	<polygon class="st2" points="518.1,220 560,178.1 560,168.4 508.4,220 	"/>
	<polygon class="st2" points="547.1,220 556.8,220 560,216.8 560,207.1 	"/>
	<polygon class="st1" points="537.4,220 560,197.4 560,187.7 527.7,220 	"/>
</g>
</svg>
